<mxfile host="app.diagrams.net" modified="2023-05-29T21:54:37.772Z" agent="Mozilla/5.0 (Windows NT 10.0; Win64; x64) AppleWebKit/537.36 (KHTML, like Gecko) Chrome/113.0.0.0 Safari/537.36" etag="o-KLoabfPslUAaR-nGgB" version="21.3.5" type="device">
  <diagram name="Page-1" id="vWevQwf2nzzNmxXOcsF4">
    <mxGraphModel dx="1434" dy="796" grid="1" gridSize="10" guides="1" tooltips="1" connect="1" arrows="1" fold="1" page="1" pageScale="1" pageWidth="850" pageHeight="1100" math="0" shadow="0">
      <root>
        <mxCell id="0" />
        <mxCell id="1" parent="0" />
        <mxCell id="rJuxZqKj7uZyPMQ5hgTD-24" value="" style="rounded=0;whiteSpace=wrap;html=1;" vertex="1" parent="1">
          <mxGeometry x="10" y="100" width="770" height="120" as="geometry" />
        </mxCell>
        <mxCell id="rJuxZqKj7uZyPMQ5hgTD-1" value="Originator" style="swimlane;fontStyle=1;align=center;verticalAlign=top;childLayout=stackLayout;horizontal=1;startSize=26;horizontalStack=0;resizeParent=1;resizeParentMax=0;resizeLast=0;collapsible=1;marginBottom=0;whiteSpace=wrap;html=1;" vertex="1" parent="1">
          <mxGeometry x="30" y="110" width="220" height="100" as="geometry" />
        </mxCell>
        <mxCell id="rJuxZqKj7uZyPMQ5hgTD-2" value="+ state: State" style="text;strokeColor=none;fillColor=none;align=left;verticalAlign=top;spacingLeft=4;spacingRight=4;overflow=hidden;rotatable=0;points=[[0,0.5],[1,0.5]];portConstraint=eastwest;whiteSpace=wrap;html=1;" vertex="1" parent="rJuxZqKj7uZyPMQ5hgTD-1">
          <mxGeometry y="26" width="220" height="26" as="geometry" />
        </mxCell>
        <mxCell id="rJuxZqKj7uZyPMQ5hgTD-3" value="" style="line;strokeWidth=1;fillColor=none;align=left;verticalAlign=middle;spacingTop=-1;spacingLeft=3;spacingRight=3;rotatable=0;labelPosition=right;points=[];portConstraint=eastwest;strokeColor=inherit;" vertex="1" parent="rJuxZqKj7uZyPMQ5hgTD-1">
          <mxGeometry y="52" width="220" height="8" as="geometry" />
        </mxCell>
        <mxCell id="rJuxZqKj7uZyPMQ5hgTD-4" value="+ SetMemento(Memento m): void&lt;br&gt;+ CreateMemento(): Memento" style="text;strokeColor=none;fillColor=none;align=left;verticalAlign=top;spacingLeft=4;spacingRight=4;overflow=hidden;rotatable=0;points=[[0,0.5],[1,0.5]];portConstraint=eastwest;whiteSpace=wrap;html=1;" vertex="1" parent="rJuxZqKj7uZyPMQ5hgTD-1">
          <mxGeometry y="60" width="220" height="40" as="geometry" />
        </mxCell>
        <mxCell id="rJuxZqKj7uZyPMQ5hgTD-5" value="Memento" style="swimlane;fontStyle=1;align=center;verticalAlign=top;childLayout=stackLayout;horizontal=1;startSize=26;horizontalStack=0;resizeParent=1;resizeParentMax=0;resizeLast=0;collapsible=1;marginBottom=0;whiteSpace=wrap;html=1;" vertex="1" parent="1">
          <mxGeometry x="370" y="110" width="160" height="100" as="geometry" />
        </mxCell>
        <mxCell id="rJuxZqKj7uZyPMQ5hgTD-6" value="+ state: State" style="text;strokeColor=none;fillColor=none;align=left;verticalAlign=top;spacingLeft=4;spacingRight=4;overflow=hidden;rotatable=0;points=[[0,0.5],[1,0.5]];portConstraint=eastwest;whiteSpace=wrap;html=1;" vertex="1" parent="rJuxZqKj7uZyPMQ5hgTD-5">
          <mxGeometry y="26" width="160" height="26" as="geometry" />
        </mxCell>
        <mxCell id="rJuxZqKj7uZyPMQ5hgTD-7" value="" style="line;strokeWidth=1;fillColor=none;align=left;verticalAlign=middle;spacingTop=-1;spacingLeft=3;spacingRight=3;rotatable=0;labelPosition=right;points=[];portConstraint=eastwest;strokeColor=inherit;" vertex="1" parent="rJuxZqKj7uZyPMQ5hgTD-5">
          <mxGeometry y="52" width="160" height="8" as="geometry" />
        </mxCell>
        <mxCell id="rJuxZqKj7uZyPMQ5hgTD-8" value="+ GetState(): State&lt;br&gt;+ SetState(): void" style="text;strokeColor=none;fillColor=none;align=left;verticalAlign=top;spacingLeft=4;spacingRight=4;overflow=hidden;rotatable=0;points=[[0,0.5],[1,0.5]];portConstraint=eastwest;whiteSpace=wrap;html=1;" vertex="1" parent="rJuxZqKj7uZyPMQ5hgTD-5">
          <mxGeometry y="60" width="160" height="40" as="geometry" />
        </mxCell>
        <mxCell id="rJuxZqKj7uZyPMQ5hgTD-23" style="edgeStyle=orthogonalEdgeStyle;rounded=0;orthogonalLoop=1;jettySize=auto;html=1;exitX=0;exitY=0.5;exitDx=0;exitDy=0;entryX=1;entryY=0.5;entryDx=0;entryDy=0;startArrow=diamond;startFill=0;" edge="1" parent="1" source="rJuxZqKj7uZyPMQ5hgTD-14" target="rJuxZqKj7uZyPMQ5hgTD-6">
          <mxGeometry relative="1" as="geometry" />
        </mxCell>
        <mxCell id="rJuxZqKj7uZyPMQ5hgTD-14" value="CareTaker" style="swimlane;fontStyle=0;childLayout=stackLayout;horizontal=1;startSize=26;fillColor=none;horizontalStack=0;resizeParent=1;resizeParentMax=0;resizeLast=0;collapsible=1;marginBottom=0;whiteSpace=wrap;html=1;" vertex="1" parent="1">
          <mxGeometry x="620" y="123" width="140" height="52" as="geometry" />
        </mxCell>
        <mxCell id="rJuxZqKj7uZyPMQ5hgTD-22" style="edgeStyle=orthogonalEdgeStyle;rounded=0;orthogonalLoop=1;jettySize=auto;html=1;exitX=1;exitY=0.5;exitDx=0;exitDy=0;entryX=0;entryY=0.5;entryDx=0;entryDy=0;dashed=1;" edge="1" parent="1" source="rJuxZqKj7uZyPMQ5hgTD-2" target="rJuxZqKj7uZyPMQ5hgTD-6">
          <mxGeometry relative="1" as="geometry" />
        </mxCell>
      </root>
    </mxGraphModel>
  </diagram>
</mxfile>
